<svg xmlns="http://www.w3.org/2000/svg" version="1.1" xmlns:xlink="http://www.w3.org/1999/xlink" xmlns:svgjs="http://svgjs.dev/svgjs" width="1000" height="199" viewBox="0 0 1000 199"><g transform="matrix(1,0,0,1,-0.6060593138771537,0.4570110607347715)"><svg viewBox="0 0 396 79" data-background-color="#ffffff" preserveAspectRatio="xMidYMid meet" height="199" width="1000" xmlns="http://www.w3.org/2000/svg" xmlns:xlink="http://www.w3.org/1999/xlink"><g id="tight-bounds" transform="matrix(1,0,0,1,0.23999948829535356,-0.1814265014977252)"><svg viewBox="0 0 395.5199999999999 79.36285300299546" height="79.36285300299546" width="395.5199999999999"><g><svg viewBox="0 0 444.50413629742866 89.19173854216297" height="79.36285300299546" width="395.5199999999999"><g transform="matrix(1,0,0,1,48.98413629742865,12.326788756550748)"><svg viewBox="0 0 395.52 64.53816102906147" height="64.53816102906147" width="395.52"><g><svg viewBox="0 0 395.52 64.53816102906147" height="64.53816102906147" width="395.52"><g><svg viewBox="0 0 395.52 64.53816102906147" height="64.53816102906147" width="395.52"><g transform="matrix(1,0,0,1,0,0)"><svg width="395.52" viewBox="1.75 -32.54999923706055 209.88999938964844 34.25" height="64.53816102906147" data-palette-color="#096a2e"><path d="M16.5 0.6Q12 0.6 8.68-1.3 5.35-3.2 3.55-6.73 1.75-10.25 1.75-15L1.75-15Q1.75-20.3 3.93-24.25 6.1-28.2 10.1-30.38 14.1-32.55 19.4-32.55L19.4-32.55Q21.3-32.55 23.48-32.27 25.65-32 27.2-31.73 28.75-31.45 29.2-31.35L29.2-31.35 29.45-30.9Q29.35-30.6 29.1-29.4 28.85-28.2 28.58-26.28 28.3-24.35 28.15-22.2L28.15-22.2 24.7-21.95Q24.75-22.15 24.8-22.9 24.85-23.65 24.85-24.65L24.85-24.65Q24.85-26.85 23.3-27.83 21.75-28.8 18.25-28.8L18.25-28.8Q13.05-28.8 10.3-25.7 7.55-22.6 7.55-16.65L7.55-16.65Q7.55-12.4 8.78-9.3 10-6.2 12.28-4.53 14.55-2.85 17.65-2.85L17.65-2.85Q19.25-2.85 20.58-3.23 21.9-3.6 22.68-3.98 23.45-4.35 23.65-4.5L23.65-4.5 23.65-9.95Q23.65-11.55 23.15-12.05 22.65-12.55 21.15-12.55L21.15-12.55 18.05-12.55 17.9-12.85 18.35-15.8Q18.95-15.8 19.5-15.75L19.5-15.75Q22.1-15.65 25-15.65L25-15.65Q26.4-15.65 27.8-15.75 29.2-15.85 29.6-15.9L29.6-15.9 29.9-14.4Q28.8-13.6 28.45-12.03 28.1-10.45 28.1-6.5L28.1-6.5Q28.1-3.7 28.45-2.1L28.45-2.1 28.1-1.6Q28.1-1.55 26.38-0.98 24.65-0.4 22.08 0.1 19.5 0.6 16.5 0.6L16.5 0.6ZM60-9.2L60.25-8.85Q59.35-4.9 58.85-0.05L58.85-0.05 58.5 0.35Q48.45 0 43.2 0L43.2 0Q39.25 0 35.5 0.5L35.5 0.5 35.8-2.25Q38-2.55 38.8-3.45 39.6-4.35 39.6-6.5L39.6-6.5 39.65-26.65Q39.65-28.25 39.3-28.8 38.95-29.35 37.9-29.35L37.9-29.35 36.25-29.25 36.05-29.55 36.45-32.1Q42.3-31.95 44.35-31.95L44.35-31.95Q50.15-31.95 53.62-32.08 57.1-32.2 59.45-32.55L59.45-32.55 59.7-32.15Q59.3-30.3 58.97-27.9 58.65-25.5 58.55-23.5L58.55-23.5 55.2-23.25 55.3-25.35Q55.3-26.95 54.85-27.63 54.4-28.3 53.02-28.53 51.65-28.75 48.25-28.75L48.25-28.75Q46.7-28.75 46.1-28.65 45.5-28.55 45.32-28.18 45.15-27.8 45.1-26.9L45.1-26.9 44.7-18.05 49.65-18Q50.75-18 52.42-18.15 54.1-18.3 55.65-18.5L55.65-18.5 55.9-18.15 55.2-14.6Q49.95-14.75 48.45-14.75L48.45-14.75Q47-14.75 44.6-14.45L44.6-14.45 44.45-5.95Q44.45-4.55 44.67-3.95 44.9-3.35 45.6-3.15 46.3-2.95 48.05-2.95L48.05-2.95Q51.8-2.95 53.45-3.35 55.1-3.75 55.8-4.93 56.5-6.1 56.9-8.9L56.9-8.9 60-9.2ZM90.2 1.7Q86.25-4.5 82.52-10.1 78.8-15.7 76.4-19.18 74-22.65 73.35-23.55L73.35-23.55 73-23.55 72.8-4.75Q72.85-3.55 73.2-3.1 73.55-2.65 74.45-2.65L74.45-2.65 76.85-2.7 77-2.45 76.55 0.2Q75.95 0.15 74.25 0.08 72.55 0 70.75 0L70.75 0Q69.3 0 67.62 0.18 65.95 0.35 65.45 0.4L65.45 0.4 65.75-2.35Q67.3-2.55 68.02-3.28 68.75-4 68.8-5.5L68.8-5.5 69.45-26.45Q69.45-28 68.57-28.65 67.7-29.3 65.2-29.55L65.2-29.55 65-29.9 65.35-32.2Q65.85-32.15 67.5-32.05 69.15-31.95 70.3-31.95L70.3-31.95Q71.45-31.95 72.67-32.02 73.9-32.1 74.25-32.15L74.25-32.15Q77.6-26.85 81.02-21.75 84.45-16.65 86.72-13.35 89-10.05 89.6-9.2L89.6-9.2 89.95-9.2 89.9-27.15Q89.9-29.3 88.25-29.3L88.25-29.3 86.45-29.25 86.3-29.55 86.7-32.15Q87.3-32.1 88.9-32.02 90.5-31.95 92.2-31.95L92.2-31.95Q93.6-31.95 95.32-32.1 97.05-32.25 97.55-32.3L97.55-32.3 97.3-29.55Q95.59-29.3 94.82-28.58 94.05-27.85 94-26.4L94-26.4 93.3 1.05 90.2 1.7ZM114.64 0.6Q110.44 0.6 107.27-1.33 104.09-3.25 102.34-6.8 100.59-10.35 100.59-15L100.59-15Q100.59-20 102.72-24 104.84-28 108.57-30.28 112.29-32.55 116.99-32.55L116.99-32.55Q121.29-32.55 124.54-30.63 127.79-28.7 129.57-25.2 131.34-21.7 131.34-17.05L131.34-17.05Q131.34-12 129.19-7.98 127.04-3.95 123.22-1.68 119.39 0.6 114.64 0.6L114.64 0.6ZM116.09-2.7Q118.89-2.7 120.99-4.17 123.09-5.65 124.27-8.38 125.44-11.1 125.44-14.7L125.44-14.7Q125.44-19 124.22-22.18 122.99-25.35 120.72-27.05 118.44-28.75 115.44-28.75L115.44-28.75Q112.69-28.75 110.64-27.28 108.59-25.8 107.47-23.1 106.34-20.4 106.34-16.8L106.34-16.8Q106.34-12.5 107.54-9.33 108.74-6.15 110.94-4.42 113.14-2.7 116.09-2.7L116.09-2.7ZM144.04 0.6Q141.84 0.6 139.99 0.2 138.14-0.2 136.94-0.68 135.74-1.15 135.74-1.2L135.74-1.2 135.44-1.8Q135.49-2.1 135.64-3.25 135.79-4.4 135.97-6.4 136.14-8.4 136.14-10.4L136.14-10.4 139.19-10.65Q139.19-7.35 139.69-5.68 140.19-4 141.47-3.35 142.74-2.7 145.29-2.7L145.29-2.7Q148.09-2.7 149.79-4 151.49-5.3 151.49-7.5L151.49-7.5Q151.49-9.4 149.87-10.68 148.24-11.95 144.94-13.6L144.94-13.6Q144.79-13.7 143.99-14.1L143.99-14.1Q140.19-16 138.07-17.95 135.94-19.9 135.94-22.95L135.94-22.95Q135.94-25.65 137.54-27.85 139.14-30.05 141.94-31.3 144.74-32.55 148.24-32.55L148.24-32.55Q150.29-32.55 152.09-32.25 153.89-31.95 154.97-31.65 156.04-31.35 156.29-31.25L156.29-31.25 156.49-30.8Q156.34-30.1 155.94-27.63 155.54-25.15 155.34-22.3L155.34-22.3 152.64-22.05 152.24-22.35Q152.29-22.5 152.34-23.15 152.39-23.8 152.39-24.6L152.39-24.6Q152.39-27.05 151.17-28.03 149.94-29 146.89-29L146.89-29Q144.44-29 142.84-27.78 141.24-26.55 141.24-24.7L141.24-24.7Q141.24-22.8 142.89-21.5 144.54-20.2 147.94-18.5L147.94-18.5Q150.94-17 152.72-15.9 154.49-14.8 155.77-13.15 157.04-11.5 157.04-9.3L157.04-9.3Q157.04-6.4 155.42-4.15 153.79-1.9 150.84-0.65 147.89 0.6 144.04 0.6L144.04 0.6ZM166.69 0.55L166.99-2.2Q168.89-2.5 169.74-3 170.59-3.5 170.86-4.45 171.14-5.4 171.14-7.3L171.14-7.3 171.14-9.2Q171.14-10.65 170.84-11.8 170.54-12.95 169.69-14.65L169.69-14.65 165.04-23.95Q163.99-26.1 163.34-27.08 162.69-28.05 161.71-28.6 160.74-29.15 158.99-29.4L158.99-29.4 158.89-29.6 159.24-32.1Q159.84-32.05 161.56-32 163.29-31.95 165.14-31.95L165.14-31.95Q166.84-31.95 169.34-32.13 171.84-32.3 172.64-32.35L172.64-32.35 172.84-31.95 172.59-29.7Q170.59-29.55 169.89-29.2 169.19-28.85 169.19-28L169.19-28Q169.19-27.2 171.24-22.6 173.29-18 174.19-16.25L174.19-16.25 174.54-16.25 179.49-25.85Q180.24-27.35 180.24-28.3L180.24-28.3Q180.24-28.9 179.54-29.23 178.84-29.55 177.34-29.65L177.34-29.65 177.24-29.85 177.59-32.2 178.99-32.15Q181.69-31.95 183.59-31.95L183.59-31.95Q184.89-31.95 186.44-32.02 187.99-32.1 188.44-32.15L188.44-32.15 188.64-31.8 188.29-29.4Q186.74-29.05 185.81-28.38 184.89-27.7 184.14-26.63 183.39-25.55 181.94-22.95L181.94-22.95 177.04-14.1Q176.34-12.8 176.19-11.3 176.04-9.8 176.04-5.7L176.04-5.7Q176.04-4 176.54-3.35 177.04-2.7 178.29-2.7L178.29-2.7Q179.14-2.7 179.81-2.75 180.49-2.8 180.74-2.85L180.74-2.85 180.89-2.6 180.44 0.2Q179.64 0.15 177.49 0.08 175.34 0 173.24 0L173.24 0Q171.64 0 169.49 0.23 167.34 0.45 166.69 0.55L166.69 0.55ZM198.64 0.6Q196.44 0.6 194.59 0.2 192.74-0.2 191.54-0.68 190.34-1.15 190.34-1.2L190.34-1.2 190.04-1.8Q190.09-2.1 190.24-3.25 190.39-4.4 190.56-6.4 190.74-8.4 190.74-10.4L190.74-10.4 193.79-10.65Q193.79-7.35 194.29-5.68 194.79-4 196.06-3.35 197.34-2.7 199.89-2.7L199.89-2.7Q202.69-2.7 204.39-4 206.09-5.3 206.09-7.5L206.09-7.5Q206.09-9.4 204.46-10.68 202.84-11.95 199.54-13.6L199.54-13.6Q199.39-13.7 198.59-14.1L198.59-14.1Q194.79-16 192.66-17.95 190.54-19.9 190.54-22.95L190.54-22.95Q190.54-25.65 192.14-27.85 193.74-30.05 196.54-31.3 199.34-32.55 202.84-32.55L202.84-32.55Q204.89-32.55 206.69-32.25 208.49-31.95 209.56-31.65 210.64-31.35 210.89-31.25L210.89-31.25 211.09-30.8Q210.94-30.1 210.54-27.63 210.14-25.15 209.94-22.3L209.94-22.3 207.24-22.05 206.84-22.35Q206.89-22.5 206.94-23.15 206.99-23.8 206.99-24.6L206.99-24.6Q206.99-27.05 205.76-28.03 204.54-29 201.49-29L201.49-29Q199.04-29 197.44-27.78 195.84-26.55 195.84-24.7L195.84-24.7Q195.84-22.8 197.49-21.5 199.14-20.2 202.54-18.5L202.54-18.5Q205.54-17 207.31-15.9 209.09-14.8 210.36-13.15 211.64-11.5 211.64-9.3L211.64-9.3Q211.64-6.4 210.01-4.15 208.39-1.9 205.44-0.65 202.49 0.6 198.64 0.6L198.64 0.6Z" opacity="1" transform="matrix(1,0,0,1,0,0)" fill="#096a2e" class="undefined-text-0" data-fill-palette-color="primary" id="text-0"></path></svg></g></svg></g></svg></g></svg></g><g><svg viewBox="0 0 33.74822539433193 89.19173854216297" height="89.19173854216297" width="33.74822539433193"><g><svg xmlns="http://www.w3.org/2000/svg" xmlns:xlink="http://www.w3.org/1999/xlink" version="1.1" x="0" y="0" viewBox="25 14 14 37" enable-background="new 0 0 64 64" xml:space="preserve" height="89.19173854216297" width="33.74822539433193" class="icon-icon-0" data-fill-palette-color="accent" id="icon-0"><path d="M39 32.5c0-4.295-2.636-6.734-5.314-8.75C36.364 21.734 39 19.295 39 15c0-0.552-0.447-1-1-1s-1 0.448-1 1c0 3.601-2.354 5.565-5 7.511-2.109-1.552-4.034-3.115-4.727-5.511H30c0.552 0 1-0.448 1-1s-0.448-1-1-1h-3c0-0.552-0.448-1-1-1s-1 0.448-1 1c0 4.295 2.635 6.734 5.315 8.75C27.635 25.766 25 28.205 25 32.5c0 4.296 2.635 6.734 5.315 8.75C27.635 43.266 25 45.704 25 50c0 0.553 0.448 1 1 1s1-0.447 1-1c0-3.601 2.354-5.564 5-7.511 2.109 1.552 4.033 3.115 4.727 5.511H33c-0.552 0-1 0.447-1 1s0.448 1 1 1h4c0 0.553 0.447 1 1 1s1-0.447 1-1c0-4.296-2.636-6.734-5.315-8.75C36.364 39.234 39 36.796 39 32.5zM32 40.011c-2.646-1.946-5-3.91-5-7.511 0-0.536 0.057-1.032 0.154-1.5H31c0.552 0 1-0.448 1-1s-0.448-1-1-1h-3.078c0.925-1.597 2.444-2.809 4.078-4.011 2.646 1.946 5 3.91 5 7.511 0 0.535-0.057 1.031-0.154 1.5H34c-0.553 0-1 0.447-1 1s0.447 1 1 1h2.078C35.152 37.597 33.634 38.809 32 40.011z" fill="#8abe53" data-fill-palette-color="accent"></path></svg></g></svg></g></svg></g><defs></defs></svg><rect width="395.5199999999999" height="79.36285300299546" fill="none" stroke="none" visibility="hidden"></rect></g></svg></g></svg>